<?xml version="1.0" encoding="UTF-8" standalone="no"?>
<!-- Created with Inkscape (http://www.inkscape.org/) -->

<svg
   xmlns:dc="http://purl.org/dc/elements/1.1/"
   xmlns:cc="http://creativecommons.org/ns#"
   xmlns:rdf="http://www.w3.org/1999/02/22-rdf-syntax-ns#"
   xmlns:svg="http://www.w3.org/2000/svg"
   xmlns="http://www.w3.org/2000/svg"
   xmlns:xlink="http://www.w3.org/1999/xlink"
   xmlns:sodipodi="http://sodipodi.sourceforge.net/DTD/sodipodi-0.dtd"
   xmlns:inkscape="http://www.inkscape.org/namespaces/inkscape"
   width="650"
   height="650"
   id="svg2"
   version="1.1"
   inkscape:version="0.92.3 (2405546, 2018-03-11)"
   sodipodi:docname="logo-dark.svg"
   inkscape:export-filename="/home/msp/lab/kieler-design/foerde-logo.png"
   inkscape:export-xdpi="35.75"
   inkscape:export-ydpi="35.75">
  <defs
     id="defs4">
    <linearGradient
       id="linearGradient3666">
      <stop
         id="stop847"
         offset="0"
         style="stop-color:#202020;stop-opacity:1;" />
      <stop
         id="stop849"
         offset="1"
         style="stop-color:#575757;stop-opacity:1;" />
    </linearGradient>
    <linearGradient
       id="linearGradient3666-8">
      <stop
         style="stop-color:#202020;stop-opacity:1;"
         offset="0"
         id="stop3668" />
      <stop
         style="stop-color:#575757;stop-opacity:1;"
         offset="1"
         id="stop3670" />
    </linearGradient>
    <linearGradient
       id="linearGradient3658">
      <stop
         style="stop-color:#122f5e;stop-opacity:1;"
         offset="0"
         id="stop3660" />
      <stop
         style="stop-color:#4980db;stop-opacity:1;"
         offset="1"
         id="stop3662" />
    </linearGradient>
    <linearGradient
       id="linearGradient3650">
      <stop
         style="stop-color:#a0002c;stop-opacity:1;"
         offset="0"
         id="stop3652" />
      <stop
         style="stop-color:#ff95b3;stop-opacity:1;"
         offset="1"
         id="stop3654" />
    </linearGradient>
    <linearGradient
       id="linearGradient3622">
      <stop
         style="stop-color:#ffffff;stop-opacity:1;"
         offset="0"
         id="stop3624" />
      <stop
         style="stop-color:#ffffff;stop-opacity:0;"
         offset="1"
         id="stop3626" />
    </linearGradient>
    <linearGradient
       id="linearGradient4388">
      <stop
         style="stop-color:#211232;stop-opacity:1;"
         offset="0"
         id="stop4390" />
      <stop
         style="stop-color:#f9f7fd;stop-opacity:1;"
         offset="1"
         id="stop4392" />
    </linearGradient>
    <inkscape:perspective
       sodipodi:type="inkscape:persp3d"
       inkscape:vp_x="0 : 526.18109 : 1"
       inkscape:vp_y="0 : 1000 : 0"
       inkscape:vp_z="744.09448 : 526.18109 : 1"
       inkscape:persp3d-origin="372.04724 : 350.78739 : 1"
       id="perspective10" />
    <inkscape:perspective
       id="perspective2894"
       inkscape:persp3d-origin="0.5 : 0.33333333 : 1"
       inkscape:vp_z="1 : 0.5 : 1"
       inkscape:vp_y="0 : 1000 : 0"
       inkscape:vp_x="0 : 0.5 : 1"
       sodipodi:type="inkscape:persp3d" />
    <linearGradient
       inkscape:collect="always"
       xlink:href="#linearGradient4388"
       id="linearGradient4394"
       x1="242.91425"
       y1="616.30573"
       x2="490.45645"
       y2="83.955353"
       gradientUnits="userSpaceOnUse" />
    <linearGradient
       inkscape:collect="always"
       xlink:href="#linearGradient3666-8"
       id="linearGradient3656"
       x1="206.7471"
       y1="947.58362"
       x2="500.34137"
       y2="413.29788"
       gradientUnits="userSpaceOnUse" />
    <linearGradient
       inkscape:collect="always"
       xlink:href="#linearGradient3666-8"
       id="linearGradient3664"
       x1="248.12881"
       y1="544.35931"
       x2="492.06854"
       y2="47.705414"
       gradientUnits="userSpaceOnUse" />
    <filter
       inkscape:collect="always"
       id="filter3678"
       x="-0.52572321"
       width="2.0514464"
       y="-0.73314461"
       height="2.4662892">
      <feGaussianBlur
         inkscape:collect="always"
         stdDeviation="36.490879"
         id="feGaussianBlur3680" />
    </filter>
    <clipPath
       clipPathUnits="userSpaceOnUse"
       id="clipPath3694">
      <path
         style="fill:url(#linearGradient3698);fill-opacity:1;stroke:#000000;stroke-width:0;stroke-linecap:butt;stroke-miterlimit:4;stroke-opacity:1;stroke-dasharray:none;stroke-dashoffset:0;display:inline"
         d="m 356.10745,91.40959 c -4.98535,0 -9.94569,0.148316 -14.875,0.375 -8.08354,10.60432 -5.93616,18.3166 -8.25,21 -14.55125,16.87525 -17.9985,-7.54164 -33.46875,28.40625 -8.69153,20.24648 -5.85635,16.52704 -13.625,25.125 -3.70508,-5.54965 -17.21014,0.28836 -12.25,16.5625 15.01137,49.25209 37.33459,60.68606 41.78125,73.59375 5.96289,17.30897 16.40737,36.46562 7.0625,48.625 -2.93339,3.81688 -9.21197,24.63406 3.28125,36.625 -4.77644,4.54074 -30.66115,-1.44217 -36.875,1.75 -5.15833,2.64993 -11.69228,10.19458 -32.1875,16.0625 -0.25549,6.95148 1.57244,24.91259 8.40625,20.03125 l 4.09375,9.375 c -5.61093,3.00751 -14.63439,5.67865 -16.65625,9.84375 -5.11359,10.53416 -7.85633,15.90484 -11.125,24.5 l -13.25,0.5 -3.90625,17.6875 1.875,0.5 c -7.40647,19.78476 -17.20045,38.75601 -14.125,41.53125 26.6215,24.02281 38.99629,43.17638 36.34375,61.75 -0.58258,4.07933 -9.75531,7.23172 -24.21875,42.3125 -12.88488,31.25201 -22.62813,28.88284 -24.03125,32.5 l -8.8125,22.75 4.59375,1.34375 6.5,-17.53125 c 10.81472,-9.82373 13.80285,-5.8833 29.65625,-18.84375 l 2,2.71875 2.9375,-2.4375 -3.875,-12.75 7.625,0.0625 3.03125,5.625 7.75,-5.34375 3.84375,4.46875 7.15625,-5 -2.78125,-3.90625 18.375,-15.21875 c 0,0 9.38047,0.28812 11.1875,-0.8125 1.18243,-0.72019 2.37814,-2.95204 1.375,-3.90625 l -20.71875,-19.71875 7.59375,-7.6875 c 2.42163,3.09014 6.30335,-1.4288 9.84375,-4.15625 1.69684,-27.85775 -3.00906,-22.57738 -2.625,-31.5 0.66631,-15.48012 10.90467,-10.14328 8.3125,-30.5 -0.54985,-4.31806 4.81535,-7.02762 4.90625,-10.9375 0.11953,-5.04969 -4.46727,-10.73673 -3.28125,-14.0625 2.08774,-5.85433 40.6506,-10.11242 40.5625,-25 -0.0609,-10.29328 -6.0776,-15.47907 -3.625,-19.625 9.64834,-16.30971 -3.40687,-19.65115 -2.0625,-23.9375 3.28751,-10.48175 15.0253,10.84949 31.6875,-39.53125 8.55461,-25.8662 0.86197,-20.11108 2.75,-24.8125 1.43624,-3.57641 21.77785,-12.2787 10.28125,-13.1875 2.43855,-6.00397 19.25457,-16.02079 5.96875,-17.03125 12.48263,-27.84756 34.48808,-30.79535 21.90625,-38.53125 55.34145,-17.41382 78.51614,-10.16218 87,-14.53125 9.55062,-4.91844 34.8435,-1.86319 23.875,-14.40625 19.50763,-19.48813 44.04997,-30.61031 59.375,-45.875 C 515.64502,123.6261 439.6448,91.40959 356.10745,91.40959 z m 308.0625,238.0625 c 0.40128,1.55243 0.77871,3.13014 1.15625,4.6875 -0.38058,-1.56611 -0.75257,-3.13056 -1.15625,-4.6875 z m 4.9375,22.4375 c 0.42796,2.34017 0.84342,4.68341 1.21875,7.03125 -0.37563,-2.35025 -0.7919,-4.69848 -1.21875,-7.03125 z m -626.531247,2.90625 c -0.322172,1.85838 -0.647746,3.72446 -0.9375,5.59375 0.289058,-1.86735 0.61504,-3.73055 0.9375,-5.59375 z m 629.187497,14.1875 c 0.55814,4.38206 1.03033,8.78837 1.40625,13.1875 -0.37649,-4.42398 -0.85044,-8.81703 -1.40625,-13.1875 z m 1.40625,13.1875 c 0.21662,2.53497 0.40645,5.05472 0.5625,7.59375 -0.15562,-2.54435 -0.34738,-5.06592 -0.5625,-7.59375 z m 0.5625,7.59375 c 0.15222,2.47675 0.28045,4.95799 0.375,7.4375 -0.0943,-2.47913 -0.22427,-4.97322 -0.375,-7.4375 z M 40.294953,370.31584 c -0.219008,1.78141 -0.435587,3.55335 -0.625,5.34375 0.188819,-1.78465 0.406004,-3.56167 0.625,-5.34375 z m -0.625,5.34375 c -0.267531,2.5288 -0.510864,5.07888 -0.71875,7.625 0.207391,-2.53976 0.450481,-5.08942 0.71875,-7.625 z m -0.71875,7.625 c -0.207208,2.53781 -0.384,5.07068 -0.53125,7.625 0.146558,-2.54276 0.323859,-5.08524 0.53125,-7.625 z m -0.53125,7.625 c -0.145784,2.52889 -0.25742,5.08061 -0.34375,7.625 0.08577,-2.54458 0.197192,-5.08224 0.34375,-7.625 z m -0.34375,7.625 c -0.063,1.85663 -0.09398,3.69793 -0.125,5.5625 0.03024,-1.85662 0.06243,-3.7063 0.125,-5.5625 z m 636.031247,-1.125 c 0.0884,2.35451 0.15113,4.70648 0.1875,7.0625 -0.0367,-2.36912 -0.0993,-4.70622 -0.1875,-7.0625 z m -636.187497,16.625 c 0.03461,2.48447 0.09621,4.93586 0.1875,7.40625 -0.09318,-2.46 -0.151075,-4.94463 -0.1875,-7.40625 z m 0.1875,7.40625 c 0.09396,2.54263 0.221666,5.09796 0.375,7.625 -0.156938,-2.5401 -0.278672,-5.08201 -0.375,-7.625 z m 0.375,7.625 c 2.720019,44.82744 14.726801,87.14545 34.125,125.0625 -20.048498,-39.26864 -31.458464,-81.9036 -34.125,-125.0625 z m 635.812497,-14.625 c -0.0307,1.95232 -0.0898,3.92314 -0.15625,5.875 0.0656,-1.96055 0.12634,-3.90561 0.15625,-5.875 z m -0.15625,5.875 c -0.0866,2.54352 -0.19632,5.0833 -0.34375,7.625 0.14458,-2.52932 0.25865,-5.08019 0.34375,-7.625 z m -0.34375,7.625 c -3.16976,54.6466 -20.3857,108.74169 -51.875,156.4375 29.93977,-45.37549 48.5827,-98.83996 51.875,-156.4375 z m -51.875,156.4375 c -2.92924,4.43682 -5.97994,8.80356 -9.15625,13.125 3.15501,-4.2961 6.21573,-8.66847 9.15625,-13.125 z m -9.15625,13.125 c -7.1467,9.72324 -14.91218,19.15696 -23.3125,28.21875 -3.73348,4.02746 -7.54886,7.92829 -11.4375,11.71875 12.66002,-12.31532 24.27373,-25.67222 34.75,-39.9375 z m -34.75,39.9375 c -1.94432,1.89523 -3.9249,3.75784 -5.90625,5.59375 1.991,-1.84068 3.96292,-3.70333 5.90625,-5.59375 z m -5.90625,5.59375 c -0.99067,0.91796 -1.96904,1.81563 -2.96875,2.71875 0.99647,-0.89827 1.98376,-1.80813 2.96875,-2.71875 z m -2.96875,2.71875 c -1.99942,1.80624 -4.02782,3.59689 -6.0625,5.34375 2.04196,-1.7495 4.0659,-3.54391 6.0625,-5.34375 z m -428.625,-2.3125 c 0.7538,0.69439 1.52075,1.37533 2.28125,2.0625 -0.76316,-0.68969 -1.52303,-1.36405 -2.28125,-2.0625 z m 5.34375,4.8125 c 1.02372,0.90143 2.05841,1.79908 3.09375,2.6875 -1.03273,-0.88685 -2.06949,-1.78515 -3.09375,-2.6875 z m 12.5,10.4375 c 1.05119,0.83461 2.09431,1.67846 3.15625,2.5 -1.06517,-0.8249 -2.09897,-1.65962 -3.15625,-2.5 z m 395.4375,0.0625 c -0.97238,0.77297 -1.92677,1.55247 -2.90625,2.3125 0.97892,-0.75841 1.93648,-1.54297 2.90625,-2.3125 z m -6.28125,4.875 c -1.91468,1.445 -3.84106,2.88492 -5.78125,4.28125 1.94789,-1.4005 3.86667,-2.83817 5.78125,-4.28125 z m -376.28125,4.78125 c 0.77273,0.55228 1.53464,1.11073 2.3125,1.65625 -0.77955,-0.5473 -1.53667,-1.10109 -2.3125,-1.65625 z m 40.9375,24.84375 c 2.22498,1.12987 4.46401,2.23377 6.71875,3.3125 -2.2486,-1.07509 -4.49006,-2.18122 -6.71875,-3.3125 z m 281.75,3.03125 c -2.33383,1.12063 -4.6757,2.18926 -7.03125,3.25 2.35877,-1.06421 4.70351,-2.13041 7.03125,-3.25 z m -7.03125,3.25 c -32.97772,14.85032 -68.02669,23.82995 -103.53125,26.875 36.63161,-3.105 71.49193,-12.41973 103.53125,-26.875 z m -103.53125,26.875 c -2.53604,0.2175 -5.05365,0.40556 -7.59375,0.5625 2.53842,-0.15463 5.07175,-0.34873 7.59375,-0.5625 z m -7.59375,0.5625 c -2.44664,0.15116 -4.89442,0.28007 -7.34375,0.375 2.45938,-0.0934 4.89897,-0.22608 7.34375,-0.375 z M 256.3262,711.62834 c 1.96931,0.64949 3.95139,1.26312 5.9375,1.875 -1.97918,-0.60901 -3.96781,-1.22632 -5.9375,-1.875 z m 5.9375,1.875 c 4.72937,1.45702 9.49189,2.82277 14.3125,4.0625 -4.79389,-1.23236 -9.56717,-2.60232 -14.3125,-4.0625 z m 14.84375,4.1875 c 2.47954,0.63311 4.96629,1.23799 7.46875,1.8125 -2.49703,-0.57333 -4.98296,-1.17803 -7.46875,-1.8125 z m 7.46875,1.8125 c 2.48398,0.57027 4.9942,1.11323 7.5,1.625 -2.50709,-0.51223 -5.00297,-1.05167 -7.5,-1.625 z m 7.5,1.625 c 4.62542,0.94467 9.27264,1.78955 13.96875,2.53125 -4.67014,-0.73909 -9.32735,-1.58296 -13.96875,-2.53125 z m 15.875,2.84375 c 2.2596,0.3428 4.53755,0.64247 6.8125,0.9375 -2.26919,-0.29523 -4.54851,-0.59324 -6.8125,-0.9375 z m 6.8125,0.9375 c 2.241,0.29063 4.49461,0.56873 6.75,0.8125 -2.25364,-0.2445 -4.50064,-0.51985 -6.75,-0.8125 z m 33.125,2.5625 c 1.65419,0.0419 3.30838,0.0772 4.96875,0.0937 -1.65851,-0.0163 -3.31042,-0.0516 -4.96875,-0.0937 z m 4.96875,0.0937 c 1.07927,0.0108 2.16818,0.0312 3.25,0.0312 1.37306,0 2.75606,-0.0139 4.125,-0.0312 -2.4613,0.0326 -4.91322,0.0242 -7.375,0 z"
         id="path3696" />
    </clipPath>
    <linearGradient
       inkscape:collect="always"
       xlink:href="#linearGradient3658"
       id="linearGradient3698"
       gradientUnits="userSpaceOnUse"
       gradientTransform="translate(-19.164681,43.71561)"
       x1="248.12881"
       y1="544.35931"
       x2="492.06854"
       y2="47.705414" />
  </defs>
  <sodipodi:namedview
     id="base"
     pagecolor="#ffffff"
     bordercolor="#666666"
     borderopacity="1.0"
     inkscape:pageopacity="0.0"
     inkscape:pageshadow="2"
     inkscape:zoom="1.4"
     inkscape:cx="309.78934"
     inkscape:cy="324.38254"
     inkscape:document-units="px"
     inkscape:current-layer="layer2"
     showgrid="false"
     units="px"
     inkscape:window-width="1853"
     inkscape:window-height="1025"
     inkscape:window-x="67"
     inkscape:window-y="27"
     inkscape:window-maximized="1" />
  <metadata
     id="metadata7">
    <rdf:RDF>
      <cc:Work
         rdf:about="">
        <dc:format>image/svg+xml</dc:format>
        <dc:type
           rdf:resource="http://purl.org/dc/dcmitype/StillImage" />
        <dc:title />
      </cc:Work>
    </rdf:RDF>
  </metadata>
  <g
     inkscape:label="Shape"
     inkscape:groupmode="layer"
     id="layer1"
     transform="translate(-57.115461,-365.44092)"
     style="display:inline">
    <path
       sodipodi:type="arc"
       style="fill:url(#linearGradient3664);fill-opacity:1;stroke:#000000;stroke-width:0;stroke-linecap:butt;stroke-miterlimit:4;stroke-opacity:1;stroke-dasharray:none;stroke-dashoffset:0;opacity:0.733"
       id="path3716"
       sodipodi:cx="375.27167"
       sodipodi:cy="365.7879"
       sodipodi:rx="318.22549"
       sodipodi:ry="318.08249"
       d="M 693.49716,365.7879 A 318.22549,318.08249 0 0 1 375.27167,683.87039 318.22549,318.08249 0 0 1 57.046173,365.7879 318.22549,318.08249 0 0 1 375.27167,47.705414 318.22549,318.08249 0 0 1 693.49716,365.7879 Z"
       transform="translate(6.8433269,324.65319)" />
    <path
       id="path2900"
       style="fill:url(#linearGradient3656);fill-opacity:1.0;stroke:none"
       d="m 598.52476,457.10552 c -15.31854,15.31232 -39.9385,26.44532 -59.48553,45.97282 10.9685,12.54306 -14.31423,9.47623 -23.86485,14.39467 -8.48386,4.36907 -31.65794,-2.89288 -86.99939,14.52094 12.58183,7.7359 -9.42954,10.69514 -21.91217,38.5427 13.28582,1.01046 -3.53308,11.02705 -5.97163,17.03102 11.4966,0.9088 -8.83488,9.59889 -10.27112,13.1753 -1.88803,4.70142 5.79835,-1.04984 -2.75626,24.81636 -16.6622,50.38074 -28.40602,29.04047 -31.69353,39.52222 -1.34437,4.28635 11.72934,7.65382 2.081,23.96353 -2.4526,4.14593 3.55443,9.33493 3.61533,19.62821 0.0881,14.88758 -38.45886,19.11804 -40.5466,24.97237 -1.18602,3.32577 3.37819,9.02485 3.25866,14.07454 -0.0909,3.90988 -5.45,6.60867 -4.90015,10.92673 2.59217,20.35672 -7.65213,15.03739 -8.31844,30.51751 -0.38406,8.92262 4.33317,3.62285 2.63633,31.4806 -3.5404,2.72745 -7.42736,7.25702 -9.84899,4.16688 l -7.57614,7.70242 20.70812,19.69797 c 1.00314,0.95421 -0.20653,3.19415 -1.38896,3.91434 -1.80703,1.10062 -11.16397,0.80992 -11.16397,0.80992 l -18.38299,15.22625 2.77792,3.91435 -7.16036,4.97679 -3.82505,-4.47172 -7.77638,5.3556 -3.03046,-5.61448 -7.62844,-0.0613 3.89267,12.73151 -2.94116,2.45142 -2.00499,-2.71927 c -15.8534,12.96045 -18.83685,9.02099 -29.65157,18.84472 l -6.50735,17.51443 -4.59798,-1.33032 8.82986,-22.76279 c 1.40312,-3.61716 11.13053,-1.23875 24.01541,-32.49076 14.46344,-35.08078 23.66109,-38.22081 24.24367,-42.30014 2.65254,-18.57362 -9.744,-37.72276 -36.3655,-61.74557 -3.07545,-2.77524 6.73567,-21.75776 14.14214,-41.54252 l -1.89404,-0.50508 3.91435,-17.67767 13.25825,-0.50508 c 3.26867,-8.59516 5.99809,-13.96204 11.11168,-24.4962 2.02186,-4.1651 11.05658,-6.84147 16.66751,-9.84898 l -4.09925,-9.38089 c -6.83381,4.88134 -8.65688,-13.08833 -8.40139,-20.03981 20.49522,-5.86792 27.04029,-13.38624 32.19862,-16.03617 6.21385,-3.19217 32.09412,2.77298 36.87056,-1.76776 -12.49322,-11.99094 -6.21638,-32.80115 -3.28299,-36.61803 9.34487,-12.15938 -1.10818,-31.30463 -7.07107,-48.6136 -4.44666,-12.90769 -26.78369,-24.36277 -41.79506,-73.61486 -4.96014,-16.27414 8.54302,-22.0909 12.2481,-16.54125 7.76865,-8.59796 4.94553,-4.88106 13.63706,-25.12754 15.47025,-35.94789 18.91005,-11.53529 33.4613,-28.41054 2.34059,-2.71442 0.0972,-10.57707 8.51593,-21.3713 -83.30276,3.87952 -161.94743,40.35617 -218.76165,101.64407 C 29.262553,602.88082 36.888806,804.20828 165.76754,923.67955 294.64627,1043.1508 495.97373,1035.5246 615.445,906.64584 734.91627,777.7671 727.40349,576.57679 598.52476,457.10552 z"
       sodipodi:nodetypes="ccscccsssssssssccccscccccccccccccccsssccccscccscsssccscsssc" />
  </g>
  <g
     inkscape:groupmode="layer"
     id="layer2"
     inkscape:label="Light"
     style="display:inline"
     transform="translate(-57.115461,-57.168869)">
    <path
       sodipodi:type="arc"
       style="opacity:0.51464431;fill:#ffffff;fill-opacity:1;stroke:none;display:inline;filter:url(#filter3678)"
       id="path4396"
       sodipodi:cx="433.35544"
       sodipodi:cy="213.25487"
       sodipodi:rx="83.292984"
       sodipodi:ry="59.727718"
       d="m 516.64842,213.25487 a 83.292984,59.727718 0 0 1 -83.29298,59.72772 83.292984,59.727718 0 0 1 -83.29299,-59.72772 83.292984,59.727718 0 0 1 83.29299,-59.72772 83.292984,59.727718 0 0 1 83.29298,59.72772 z"
       transform="translate(26.008008,-27.334471)"
       clip-path="url(#clipPath3694)" />
  </g>
</svg>
